# xmcd
# 
# Track frame offsets:
#     150
#     14452
#     33495
#     57070
#     70927
#     81818
#     108707
#     130494
#     162345
#     179339
#     191675
#     207524
# 
# Disc length: 3078
# 
# Revision: 0
# Processed by: cddbd v1.5.2PL0 Copyright (c) Steve Scherf et al.
# Submitted via: fre:ac v1.0.17
# 
DISCID=ad0c040c
DTITLE=Various Artist - Blues en Movimiento Vol. 3 - 4 Armónicas Argentinas
DYEAR=2014
DGENRE=Blues
TTITLE0=Xime Monzón - My Kind of Baby
TTITLE1=Damián Duflós - Dynamite
TTITLE2=Jorge Costales - St James Infirmary
TTITLE3=César Valdomir - Blues in the Dark
TTITLE4=Damián Duflós - I Want to be Loved
TTITLE5=Xime Monzón - Bring it on Home
TTITLE6=César Valdomir - Eyesight to the Blind
TTITLE7=Jorge Costales - Long Distance
TTITLE8=César Valdomir - Up the Line
TTITLE9=Damián Duflós - Don't Leave me
TTITLE10=Jorge Costales - Hard Burn
TTITLE11=Xime Monzón - Sad Hours
EXTD=
EXTT0=
EXTT1=
EXTT2=
EXTT3=
EXTT4=
EXTT5=
EXTT6=
EXTT7=
EXTT8=
EXTT9=
EXTT10=
EXTT11=
PLAYORDER=
